<svg width="51" height="50" viewBox="0 0 51 50" fill="none" xmlns="http://www.w3.org/2000/svg">
<g clip-path="url(#clip0_3659_12965)">
<path fill-rule="evenodd" clip-rule="evenodd" d="M50 14.9314C50 14.9314 49.5109 11.4615 48.0125 9.93379C46.1109 7.92754 43.9797 7.91816 43.0031 7.80176C36.0062 7.29199 25.5109 7.29199 25.5109 7.29199H25.4891C25.4891 7.29199 14.9938 7.29199 7.99687 7.80176C7.01875 7.91816 4.88906 7.92754 2.98594 9.93379C1.4875 11.4619 1 14.9314 1 14.9314C1 14.9314 0.5 19.0072 0.5 23.0811V26.9018C0.5 30.9771 1 35.0514 1 35.0514C1 35.0514 1.4875 38.5213 2.98594 40.049C4.88906 42.0553 7.3875 41.9924 8.5 42.2018C12.5 42.5889 25.5 42.7084 25.5 42.7084C25.5 42.7084 36.0062 42.6928 43.0031 42.183C43.9797 42.065 46.1109 42.0557 48.0125 40.0494C49.5109 38.5213 50 35.0518 50 35.0518C50 35.0518 50.5 30.9775 50.5 26.9018V23.0811C50.5 19.0072 50 14.9314 50 14.9314ZM20.3375 31.5314L20.3359 17.3834L33.8453 24.4818L20.3375 31.5314Z" fill="#EE9017"/>
</g>
<defs>
<clipPath id="clip0_3659_12965">
<rect width="50" height="50" fill="white" transform="translate(0.5)"/>
</clipPath>
</defs>
</svg>
