<svg width="50" height="50" fill="none" xmlns="http://www.w3.org/2000/svg"><path d="M35.915 0H15.08C7.302 0 .996 6.326.996 14.13v21.74C.996 43.674 7.302 50 15.08 50h20.835C43.694 50 50 43.674 50 35.87V14.13C50 6.326 43.694 0 35.915 0zM5.996 14.13c0-5.025 4.075-9.113 9.084-9.113h20.835c5.01 0 9.084 4.088 9.084 9.113v21.74c0 5.025-4.075 9.113-9.084 9.113H15.08c-5.009 0-9.084-4.088-9.084-9.113V14.13z" fill="#EE9017"/><path d="M25.5 37.877c7.076 0 12.833-5.777 12.833-12.877 0-7.1-5.757-12.876-12.834-12.876-7.076 0-12.834 5.777-12.834 12.876 0 7.1 5.757 12.877 12.834 12.877zm0-21.74c4.87 0 8.833 3.976 8.833 8.863 0 4.888-3.963 8.864-8.834 8.864-4.87 0-8.834-3.976-8.834-8.863 0-4.888 3.963-8.864 8.834-8.864zm13.207-1.504a2.88 2.88 0 002.876-2.885 2.88 2.88 0 00-2.876-2.885 2.88 2.88 0 00-2.875 2.885 2.88 2.88 0 002.875 2.885z" fill="#EE9017"/></svg>