<svg width="50" height="50" viewBox="0 0 50 50" fill="none" xmlns="http://www.w3.org/2000/svg">
<path d="M35.9152 0H15.0803C7.30181 0 0.996094 6.32637 0.996094 14.1304V35.8696C0.996094 43.6736 7.30181 50 15.0803 50H35.9151C43.6937 50 49.9994 43.6736 49.9994 35.8696V14.1304C49.9995 6.32637 43.6937 0 35.9152 0ZM5.99642 14.1304C5.99642 9.10488 10.0713 5.0167 15.0803 5.0167H35.9151C40.9242 5.0167 44.999 9.10488 44.999 14.1304V35.8696C44.999 40.8951 40.9242 44.9833 35.9151 44.9833H15.0803C10.0713 44.9833 5.99642 40.8951 5.99642 35.8696V14.1304Z" fill="#EE9017"/>
<path d="M25.4991 37.8766C32.5758 37.8766 38.3332 32.1004 38.3332 25.0005C38.3332 17.9006 32.5758 12.124 25.4991 12.124C18.4225 12.124 12.665 17.9006 12.665 25.0005C12.665 32.1004 18.4224 37.8766 25.4991 37.8766ZM25.4991 16.1374C30.3701 16.1374 34.3328 20.1134 34.3328 25.0005C34.3328 29.8876 30.3701 33.8636 25.4991 33.8636C20.6281 33.8636 16.6653 29.8876 16.6653 25.0005C16.6653 20.1134 20.628 16.1374 25.4991 16.1374Z" fill="#EE9017"/>
<path d="M38.7073 14.6325C40.2952 14.6325 41.5825 13.3409 41.5825 11.7477C41.5825 10.1544 40.2952 8.86279 38.7073 8.86279C37.1193 8.86279 35.832 10.1544 35.832 11.7477C35.832 13.3409 37.1193 14.6325 38.7073 14.6325Z" fill="#EE9017"/>
</svg>
